<svg xmlns="http://www.w3.org/2000/svg" viewBox="0 0 331.02 290.00"><defs><clipPath id="a" transform="translate(-2)"><ellipse cx="126.22" cy="125.73" rx="126.22" ry="124.73" fill="none"/></clipPath></defs><circle class="logo-circle" cx="125.22" cy="125.22" r="125.22" fill="#71f1d6"/><path class="logo-triangle" d="M97.09 241.83l-55.15 23.92c-1.51.66-2.6-.15-2.42-1.79l5.45-49" fill="#71f1d6"/><g clip-path="url(#a)"><path class="logo-shadow" d="M254.06 148.5l-77-89.42H69.27v140.16a5.24 5.24 0 0 1-.46 2.24l73.24 85L215.67 372l57.67-67 57.67-67z"/></g><path class="logo-letter" d="M179.79 62q21.33 20.85 21.33 59.16t-21.33 59.16q-21.34 20.85-59.16 20.85H69v-160h51.64q37.81-.03 59.15 20.83zm-14.43 104.61q15.39-16.37 15.4-45.46t-15.4-45.46Q150 59.33 122.57 59.33H88.39V183h34.18q27.43 0 42.79-16.39z"/></svg>