<svg xmlns="http://www.w3.org/2000/svg" viewBox="0 0 269.8 42.9"><path fill="#4D4D4D" d="M233.3 34.6V20.9c0-6.5-3.1-9.3-7.9-9.3-2.8 0-4.9 1.3-6.2 3.2v-2.7H216v22.5h3.2V21.4c0-4.9 2.4-7 5.6-7 3.6 0 5.3 2.2 5.3 7v13.2h3.2z"/><path fill="#F16722" d="M20.5 29.4c4.9 0 8.9-4 8.9-8.9s-4-8.9-8.9-8.9-8.9 4-8.9 8.9 4 8.9 8.9 8.9"/><path fill="#0DA9A0" d="M34.9 34.9H6.1V6.1h28.8v28.8zM20.5 0C9.2 0 0 9.2 0 20.5S9.2 41 20.5 41 41 31.8 41 20.5 31.8 0 20.5 0"/><path fill="#9FC854" d="M20.5 11.6c4.9 0 8.9 4 8.9 8.9s-4 8.9-8.9 8.9-8.9-4-8.9-8.9 4-8.9 8.9-8.9M6 35h29V6H6v29z"/><path fill="#4D4D4D" d="M185.8 7.5V1.7l-5.9 2.9v4.5zm-5.9 4.6h5.9v22.5h-5.9zm26.6 1.1c-.8-.8-2.2-1.6-4.2-1.6-2.1 0-3.6.9-4.6 2v-1.5h-5.9v22.5h5.9V22.4c0-3.9 1.5-4.9 3.8-4.9 1.3 0 2.5.6 3.4 1.5l1.6-5.8zm4.3 19.1c0-1.5-1.3-2.8-2.7-2.8-1.5 0-2.7 1.3-2.7 2.8 0 1.5 1.2 2.7 2.7 2.7 1.4.1 2.7-1.2 2.7-2.7m-36.7-4.6c-1.5 1.2-2.3 1.7-3.3 1.7-1.4 0-2.2-.6-2.2-2.7v-9.1h5.4V12h-5.4V3.3l-5.9 3v5.8h-3.8v5.6h3.8v10.6c0 3.9 2.4 6.8 6 6.8 1.8 0 3.6-.6 4.6-1.4l.8-6zm-18.7 6.9V21.9c0-6.3-2.6-10.3-8.3-10.3-2.4 0-4.2.9-5.3 2v-1.5h-5.9v22.5h5.9V22.3c0-3.9 1.4-5.1 3.9-5.1 2.4 0 3.8 1.2 3.8 5.2v12.2h5.9zm-34.2-23c-3.6 0-5.8.8-8.5 2.3L115 18c2.1-1.1 3.5-1.5 6.2-1.5 2.1 0 3.2 1.3 3.2 2.9v1.1c-.9-.5-2.3-.9-4.3-.9-5.1 0-9.1 2.5-9.1 7.5 0 5.4 4.2 8 8.4 8 2.1 0 4-.9 5.1-2v1.5h5.9V19.5c-.1-5.1-3.8-7.9-9.2-7.9zm3.2 16.4c-.6 1.1-2.2 2.1-4.1 2.1-2.5 0-3.4-1.4-3.4-3 0-1.8 1.2-2.8 3.4-2.8 2.1 0 3.1.3 4.1.9V28zm-17.9 6.6V3.3l-5.9 3v28.3zm-20.8-23c-3.6 0-5.8.8-8.5 2.3l2.3 4.1c2.1-1.1 3.5-1.5 6.2-1.5 2.1 0 3.2 1.3 3.2 2.9v1.1c-.9-.5-2.3-.9-4.3-.9-5.1 0-9.1 2.5-9.1 7.5 0 5.4 4.2 8 8.4 8 2.1 0 4-.9 5.1-2v1.5h5.9V19.5c-.1-5.1-3.8-7.9-9.2-7.9zM88.9 28c-.7 1-2.2 2-4.1 2-2.5 0-3.4-1.4-3.4-3 0-1.8 1.2-2.8 3.4-2.8 2.1 0 3.1.3 4.1.9V28zM63.4 11.6c-2.1 0-3.6.9-4.8 1.9v-1.4h-5.9v30.8l5.9-3v-6.6c1.1 1 2.8 1.8 4.8 1.8 5.6 0 8.8-4.7 8.8-11.5 0-8.4-4-12-8.8-12zm-.8 17.9c-1.7 0-3.1-.7-4-1.9v-8.5c.9-1.1 1.8-1.9 3.6-1.9 2.3 0 3.9 1.9 3.9 6.6 0 3.7-1.2 5.7-3.5 5.7zm207.2-14.7v-2.7h-5.6V3.3L261 5.1v7h-2.8v2.7h2.8V30c0 3.7 1.5 5.1 4.3 5.1 1.7 0 2.9-.3 4.2-.8l.2-2.8c-1 .4-1.9.6-3.2.6-1.7 0-2.3-.7-2.3-2.7V14.8h5.6zm-14.1 7.9c0-6.4-3.2-11.1-9.1-11.1-5.4 0-9.3 4.5-9.3 11.6 0 8.8 5 11.8 9.1 11.8 3.4 0 5.4-.9 8.1-2.6l-1.5-2.3c-2.1 1.4-3.6 2.1-6.2 2.1-3.7 0-6-3-6.3-7.9h15c.2-.4.2-.9.2-1.6zm-15.1-.9c.4-5 2.7-7.4 6-7.4 3.9 0 5.8 3 6.1 7.4h-12.1z"/></svg>