<svg class="ss-logo" data-name="ss-logo-svg" xmlns="http://www.w3.org/2000/svg" viewBox="0 0 191.45 26.87"><path class="cls-1" d="M155.69 2a2 2 0 1 1-2-2 2 2 0 0 1 2 2"/><path shape-rendering="optimizeQuality" class="cls-1" d="M59.09 6.73V10h-3.63v9a2.43 2.43 0 0 0 .42 1.68 2.43 2.43 0 0 0 1.68.42h.8a6.79 6.79 0 0 0 .73-.1v3.8a11.84 11.84 0 0 1-1.4.14h-1.5a14.49 14.49 0 0 1-2.18-.16 5.15 5.15 0 0 1-1.82-.61 3.23 3.23 0 0 1-1.24-1.29 4.61 4.61 0 0 1-.45-2.2V10h-3V6.73h3V1.31h5v5.42h3.64z"/><path class="cls-1" d="M65.28 20.46a5.09 5.09 0 0 0 5.8.33 3.12 3.12 0 0 0 1.33-1.59h4.37a8.29 8.29 0 0 1-3.22 4.65 9.47 9.47 0 0 1-5.21 1.4 10.32 10.32 0 0 1-3.85-.68 8 8 0 0 1-2.9-1.94 8.72 8.72 0 0 1-1.84-3 11 11 0 0 1-.65-3.85 10.54 10.54 0 0 1 .65-3.78 8.74 8.74 0 0 1 4.81-5 9.36 9.36 0 0 1 3.78-.76 8.59 8.59 0 0 1 4 .89 8 8 0 0 1 2.8 2.39 9.85 9.85 0 0 1 1.59 3.43 12.78 12.78 0 0 1 .35 4h-13a5 5 0 0 0 1.19 3.51zM70.89 11a3.49 3.49 0 0 0-2.71-1 4.32 4.32 0 0 0-2 .4 3.76 3.76 0 0 0-1.26 1 3.65 3.65 0 0 0-.66 1.26 5.66 5.66 0 0 0-.23 1.19h8.08A5.74 5.74 0 0 0 70.89 11zm13.62 9.46a5.09 5.09 0 0 0 5.8.33 3.12 3.12 0 0 0 1.33-1.59h4.37a8.29 8.29 0 0 1-3.22 4.65 9.47 9.47 0 0 1-5.24 1.4 10.32 10.32 0 0 1-3.85-.68 8 8 0 0 1-2.9-1.94 8.72 8.72 0 0 1-1.84-3 11 11 0 0 1-.61-3.85 10.54 10.54 0 0 1 .63-3.78 8.74 8.74 0 0 1 4.81-5 9.36 9.36 0 0 1 3.76-.73 8.59 8.59 0 0 1 4 .89 8 8 0 0 1 2.8 2.36 9.85 9.85 0 0 1 1.59 3.43 12.78 12.78 0 0 1 .41 4.05h-13a5 5 0 0 0 1.16 3.46zM90.12 11a3.49 3.49 0 0 0-2.71-1 4.32 4.32 0 0 0-2 .4 3.76 3.76 0 0 0-1.26 1 3.65 3.65 0 0 0-.66 1.26 5.66 5.66 0 0 0-.23 1.19h8.09A5.74 5.74 0 0 0 90.12 11zm12.41-9.79V24.8h-5V1.21h5zm29.77 20.18a4.79 4.79 0 0 1-2.81.75 5 5 0 0 1-2.17-.44 4.29 4.29 0 0 1-1.5-1.17 5 5 0 0 1-.89-1.71 6.93 6.93 0 0 1-.3-2h13.28a10.36 10.36 0 0 0-.26-3.93 9.56 9.56 0 0 0-1.63-3.37 8.4 8.4 0 0 0-2.81-2.36 8.1 8.1 0 0 0-3.86-.92 8.2 8.2 0 0 0-6.38 2.85 9.34 9.34 0 0 0-1.75 3 10.87 10.87 0 0 0-.61 3.65 12.21 12.21 0 0 0 .58 3.85 8.3 8.3 0 0 0 1.71 3 7.8 7.8 0 0 0 2.78 2 9.57 9.57 0 0 0 3.78.7 9.79 9.79 0 0 0 2.81-.4 8 8 0 0 0 2.43-1.19 7.48 7.48 0 0 0 2.92-4.51h-3.78a4.42 4.42 0 0 1-1.54 2.2zm-7.27-9.11a5 5 0 0 1 1-1.52 4.35 4.35 0 0 1 1.47-1 4.79 4.79 0 0 1 1.85-.38 4.13 4.13 0 0 1 1.84.4 4.51 4.51 0 0 1 1.4 1 4.86 4.86 0 0 1 .91 1.52 6.45 6.45 0 0 1 .4 1.82h-9.3a5.3 5.3 0 0 1 .43-1.84zm26.64-5.55h4V24.8h-4V6.73zm-32.32 10.45a4.6 4.6 0 0 0-1.33-1.5 6.89 6.89 0 0 0-1.87-.94q-1-.35-2.13-.59l-2.17-.45a13 13 0 0 1-1.87-.51 4 4 0 0 1-1.33-.75 1.52 1.52 0 0 1-.51-1.19 1.34 1.34 0 0 1 .35-1 2.28 2.28 0 0 1 .86-.53 4.64 4.64 0 0 1 1.08-.26 8.5 8.5 0 0 1 1-.07 5.44 5.44 0 0 1 2.36.49 2.48 2.48 0 0 1 1.31 1.92h4.16a6 6 0 0 0-.91-2.57 5.65 5.65 0 0 0-1.71-1.73 7.28 7.28 0 0 0-2.31-1 11.78 11.78 0 0 0-2.67-.3 14.4 14.4 0 0 0-2.57.24 7.93 7.93 0 0 0-2.45.86 5.49 5.49 0 0 0-1.82 1.61 4.11 4.11 0 0 0-.72 2.46 4.85 4.85 0 0 0 .49 2.29 4.35 4.35 0 0 0 1.31 1.52 6.91 6.91 0 0 0 1.85.94 19.85 19.85 0 0 0 2.15.59l2.13.45a13.1 13.1 0 0 1 1.87.51 3.89 3.89 0 0 1 1.35.79 1.76 1.76 0 0 1 .56 1.26 1.72 1.72 0 0 1-.37 1.24 2.53 2.53 0 0 1-1 .72 5.53 5.53 0 0 1-1.35.33 10.63 10.63 0 0 1-1.28.09 5.23 5.23 0 0 1-2.76-.7 2.91 2.91 0 0 1-1.31-2.25h-4a6.1 6.1 0 0 0 .64 2.59 5.65 5.65 0 0 0 1.68 2 7.37 7.37 0 0 0 2.52 1.17 12.33 12.33 0 0 0 3.16.38 13.18 13.18 0 0 0 2.83-.31 8.66 8.66 0 0 0 2.6-1 5.8 5.8 0 0 0 1.91-1.82 4.86 4.86 0 0 0 .73-2.73 4.54 4.54 0 0 0-.46-2.25zm54.87-4.32a9.56 9.56 0 0 0-1.63-3.37 8.4 8.4 0 0 0-2.81-2.36 8.1 8.1 0 0 0-3.83-.89 8.2 8.2 0 0 0-6.38 2.85 9.34 9.34 0 0 0-1.75 3 10.87 10.87 0 0 0-.61 3.65 12.21 12.21 0 0 0 .58 3.85 8.3 8.3 0 0 0 1.71 3 7.8 7.8 0 0 0 2.78 2 9.57 9.57 0 0 0 3.78.7 9.79 9.79 0 0 0 2.81-.4 8 8 0 0 0 2.43-1.19 7.48 7.48 0 0 0 2.92-4.51h-3.78a4.42 4.42 0 0 1-1.57 2.2 4.79 4.79 0 0 1-2.81.75 5 5 0 0 1-2.17-.44 4.29 4.29 0 0 1-1.5-1.17 5 5 0 0 1-.89-1.71 6.93 6.93 0 0 1-.3-2h13.28a10.36 10.36 0 0 0-.26-3.96zm-13 1.31a5.3 5.3 0 0 1 .4-1.89 5 5 0 0 1 1-1.52 4.35 4.35 0 0 1 1.47-1 4.79 4.79 0 0 1 1.91-.37 4.13 4.13 0 0 1 1.84.4 4.51 4.51 0 0 1 1.4 1 4.86 4.86 0 0 1 .91 1.52 6.45 6.45 0 0 1 .4 1.82h-9.3zm29.72 3.01a4.6 4.6 0 0 0-1.33-1.5 6.89 6.89 0 0 0-1.87-.94q-1-.35-2.13-.59l-2.17-.45a13 13 0 0 1-1.87-.51 4 4 0 0 1-1.33-.75 1.52 1.52 0 0 1-.51-1.19 1.34 1.34 0 0 1 .35-1 2.28 2.28 0 0 1 .86-.56 4.64 4.64 0 0 1 1.08-.26 8.5 8.5 0 0 1 1-.07 5.44 5.44 0 0 1 2.36.49 2.48 2.48 0 0 1 1.31 1.92h4.16a6 6 0 0 0-.86-2.57 5.65 5.65 0 0 0-1.71-1.73 7.28 7.28 0 0 0-2.31-1 11.78 11.78 0 0 0-2.67-.3 14.4 14.4 0 0 0-2.57.24 7.93 7.93 0 0 0-2.45.86 5.49 5.49 0 0 0-1.82 1.61 4.11 4.11 0 0 0-.72 2.46 4.85 4.85 0 0 0 .49 2.29 4.35 4.35 0 0 0 1.31 1.52 6.91 6.91 0 0 0 1.85.94 19.85 19.85 0 0 0 2.15.59l2.13.45a13.1 13.1 0 0 1 1.87.51 3.89 3.89 0 0 1 1.35.79 1.76 1.76 0 0 1 .56 1.26 1.72 1.72 0 0 1-.37 1.24 2.53 2.53 0 0 1-1 .72 5.53 5.53 0 0 1-1.35.33 10.63 10.63 0 0 1-1.28.09 5.23 5.23 0 0 1-2.76-.7 2.91 2.91 0 0 1-1.34-2.18h-4a6.1 6.1 0 0 0 .64 2.59 5.65 5.65 0 0 0 1.68 2 7.36 7.36 0 0 0 2.52 1.17 12.33 12.33 0 0 0 3.16.38 13.18 13.18 0 0 0 2.83-.31 8.66 8.66 0 0 0 2.6-1 5.8 5.8 0 0 0 1.91-1.82 4.86 4.86 0 0 0 .73-2.73 4.54 4.54 0 0 0-.48-2.29zM46.15 9.23a5.66 5.66 0 0 0-1.8-1.77 7.55 7.55 0 0 0-2.46-.94 14.33 14.33 0 0 0-2.85-.28 15.52 15.52 0 0 0-2.87.26 7.89 7.89 0 0 0-2.52.91 5 5 0 0 0-1.8 1.77 5.44 5.44 0 0 0-.68 2.82 3.86 3.86 0 0 0 .49 2 4.24 4.24 0 0 0 1.29 1.36 7.2 7.2 0 0 0 1.84.87q1 .33 2.11.58A29.79 29.79 0 0 1 41.05 18a1.86 1.86 0 0 1 1.49 1.68 1.84 1.84 0 0 1-.31 1.1 2.38 2.38 0 0 1-.79.7 3.74 3.74 0 0 1-1 .38 5.28 5.28 0 0 1-1.1.12 5.66 5.66 0 0 1-1.42-.17 3.67 3.67 0 0 1-1.21-.54 2.9 2.9 0 0 1-.86-.94 2.58 2.58 0 0 1-.32-1.12h-4.76a5.9 5.9 0 0 0 .8 2.76 6 6 0 0 0 1.92 1.94 8.11 8.11 0 0 0 2.67 1 15 15 0 0 0 3.08.31 15.41 15.41 0 0 0 3-.3 7.66 7.66 0 0 0 2.64-1A5.49 5.49 0 0 0 47.5 19a4.21 4.21 0 0 0-.49-2.11 4.49 4.49 0 0 0-1.29-1.43 7 7 0 0 0-1.84-.93 21.16 21.16 0 0 0-2.11-.59l-2.06-.45a15.92 15.92 0 0 1-1.8-.47 3.77 3.77 0 0 1-1.28-.68 1.36 1.36 0 0 1-.49-1.08 1.34 1.34 0 0 1 .28-.89 1.84 1.84 0 0 1 .68-.51 3 3 0 0 1 .89-.23 8.56 8.56 0 0 1 .91-.05 5 5 0 0 1 2.31.51 2.1 2.1 0 0 1 1.07 1.76H47a5.82 5.82 0 0 0-.85-2.62zm103.63-2.49c-1.76 0-4.35-.13-6.7 2.18h-.12V6.77h-3.74v18.07h4V14.5c0-3.25 2.91-4.18 6.58-4.18V6.74z"/><path class="cls-1 logo__circle" d="M17.75 4.91V2a2 2 0 0 0-4 0v2.91a11.1 11.1 0 0 0-8.86 8.86H2.03a2 2 0 0 0 0 4h2.81A11.07 11.07 0 1 0 17.75 4.91m-2 17.91a7 7 0 1 1 7-7 7 7 0 0 1-7 7"/><path class="cls-1 logo__circle" d="M11.35 15.81a4.35 4.35 0 1 0 4.34-4.35 4.35 4.35 0 0 0-4.34 4.35m3 0a1.3 1.3 0 1 1 1.3 1.3 1.31 1.31 0 0 1-1.3-1.3M7.27 5.59a2 2 0 1 1-2-2 2 2 0 0 1 2 2"/></svg>