<svg xmlns="http://www.w3.org/2000/svg" xmlns:xlink="http://www.w3.org/1999/xlink" viewBox="0 0 331.02 290.00"><!--371.99-->
  <defs>
    <clipPath id="a" transform="translate(-2)">
      <ellipse cx="126.22" cy="125.73" rx="126.22" ry="124.73" fill="none"/>
    </clipPath>
  </defs>
  <g>
    <circle class="logo-circle" cx="125.22" cy="125.22" r="125.22" fill="#71f1d6"/>
    <path class="logo-triangle" d="M99.09,241.83,43.94,265.75c-1.51.66-2.6-.15-2.42-1.79l5.45-49" transform="translate(-2)" fill="#71f1d6"/>
    <g clip-path="url(#a)">
      <path class="logo-shadow" d="M256.06,148.5l-77-89.42H71.27V199.24a5.24,5.24,0,0,1-.46,2.24l73.24,85L217.67,372l57.67-67,57.67-67Z" transform="translate(-2)" fill=""/>
    </g>
    <path class="logo-letter" d="M181.79,62q21.33,20.85,21.33,59.16t-21.33,59.16q-21.34,20.85-59.16,20.85H71v-160h51.64Q160.45,41.14,181.79,62ZM167.36,166.61q15.39-16.37,15.4-45.46t-15.4-45.46Q152,59.33,124.57,59.33H90.39V183h34.18Q152,183,167.36,166.61Z" transform="translate(-2)" fill=""/>
  </g>
</svg>
