<svg version="1.1" xmlns="http://www.w3.org/2000/svg" xmlns:xlink="http://www.w3.org/1999/xlink" x="0px" y="0px" viewBox="0 0 269.8 42.9" enable-background="new 0 0 269.8 42.9" xml:space="preserve">
<g>
  <path fill="#4D4D4D" d="M233.3,34.6V20.9c0-6.5-3.1-9.3-7.9-9.3c-2.8,0-4.9,1.3-6.2,3.2v-2.7H216v22.5h3.2V21.4c0-4.9,2.4-7,5.6-7
    c3.6,0,5.3,2.2,5.3,7v13.2H233.3z"></path>
  <g>
    <path fill="#F16722" d="M20.5,29.4c4.9,0,8.9-4,8.9-8.9c0-4.9-4-8.9-8.9-8.9s-8.9,4-8.9,8.9C11.6,25.4,15.6,29.4,20.5,29.4"></path>
    <path fill="#0DA9A0" d="M34.9,34.9H6.1V6.1h28.8V34.9z M20.5,0C9.2,0,0,9.2,0,20.5C0,31.8,9.2,41,20.5,41C31.8,41,41,31.8,41,20.5
      C41,9.2,31.8,0,20.5,0"></path>
    <path fill="#9FC854" d="M20.5,11.6c4.9,0,8.9,4,8.9,8.9c0,4.9-4,8.9-8.9,8.9c-4.9,0-8.9-4-8.9-8.9C11.6,15.6,15.6,11.6,20.5,11.6
       M6,35h29V6H6V35z"></path>
  </g>
  <polygon fill="#4D4D4D" points="185.8,7.5 185.8,1.7 179.9,4.6 179.9,9.1   "></polygon>
  <rect x="179.9" y="12.1" fill="#4D4D4D" width="5.9" height="22.5"></rect>
  <path fill="#4D4D4D" d="M206.5,13.2c-0.8-0.8-2.2-1.6-4.2-1.6c-2.1,0-3.6,0.9-4.6,2v-1.5h-5.9v22.5h5.9V22.4c0-3.9,1.5-4.9,3.8-4.9
    c1.3,0,2.5,0.6,3.4,1.5L206.5,13.2z"></path>
  <path fill="#4D4D4D" d="M210.8,32.3c0-1.5-1.3-2.8-2.7-2.8c-1.5,0-2.7,1.3-2.7,2.8c0,1.5,1.2,2.7,2.7,2.7
    C209.5,35.1,210.8,33.8,210.8,32.3"></path>
  <path fill="#4D4D4D" d="M174.1,27.7c-1.5,1.2-2.3,1.7-3.3,1.7c-1.4,0-2.2-0.6-2.2-2.7v-9.1h5.4v-5.6h-5.4V3.3l-5.9,3v5.8h-3.8v5.6
    h3.8v10.6c0,3.9,2.4,6.8,6,6.8c1.8,0,3.6-0.6,4.6-1.4L174.1,27.7z"></path>
  <path fill="#4D4D4D" d="M155.4,34.6V21.9c0-6.3-2.6-10.3-8.3-10.3c-2.4,0-4.2,0.9-5.3,2v-1.5h-5.9v22.5h5.9V22.3
    c0-3.9,1.4-5.1,3.9-5.1c2.4,0,3.8,1.2,3.8,5.2v12.2H155.4z"></path>
  <path fill="#4D4D4D" d="M121.2,11.6c-3.6,0-5.8,0.8-8.5,2.3L115,18c2.1-1.1,3.5-1.5,6.2-1.5c2.1,0,3.2,1.3,3.2,2.9v1.1
    c-0.9-0.5-2.3-0.9-4.3-0.9c-5.1,0-9.1,2.5-9.1,7.5c0,5.4,4.2,8,8.4,8c2.1,0,4-0.9,5.1-2v1.5h5.9V19.5
    C130.3,14.4,126.6,11.6,121.2,11.6z M124.4,28c-0.6,1.1-2.2,2.1-4.1,2.1c-2.5,0-3.4-1.4-3.4-3c0-1.8,1.2-2.8,3.4-2.8
    c2.1,0,3.1,0.3,4.1,0.9V28z"></path>
  <polygon fill="#4D4D4D" points="106.5,34.6 106.5,3.3 100.6,6.3 100.6,34.6   "></polygon>
  <path fill="#4D4D4D" d="M85.7,11.6c-3.6,0-5.8,0.8-8.5,2.3l2.3,4.1c2.1-1.1,3.5-1.5,6.2-1.5c2.1,0,3.2,1.3,3.2,2.9v1.1
    c-0.9-0.5-2.3-0.9-4.3-0.9c-5.1,0-9.1,2.5-9.1,7.5c0,5.4,4.2,8,8.4,8c2.1,0,4-0.9,5.1-2v1.5h5.9V19.5
    C94.8,14.4,91.1,11.6,85.7,11.6z M88.9,28C88.2,29,86.7,30,84.8,30c-2.5,0-3.4-1.4-3.4-3c0-1.8,1.2-2.8,3.4-2.8
    c2.1,0,3.1,0.3,4.1,0.9V28z"></path>
  <path fill="#4D4D4D" d="M63.4,11.6c-2.1,0-3.6,0.9-4.8,1.9v-1.4h-5.9v30.8l5.9-3v-6.6c1.1,1,2.8,1.8,4.8,1.8
    c5.6,0,8.8-4.7,8.8-11.5C72.2,15.2,68.2,11.6,63.4,11.6z M62.6,29.5c-1.7,0-3.1-0.7-4-1.9v-8.5c0.9-1.1,1.8-1.9,3.6-1.9
    c2.3,0,3.9,1.9,3.9,6.6C66.1,27.5,64.9,29.5,62.6,29.5z"></path>
  <path fill="#4D4D4D" d="M269.8,14.8v-2.7h-5.6V3.3L261,5.1v7h-2.8v2.7h2.8v15.2c0,3.7,1.5,5.1,4.3,5.1c1.7,0,2.9-0.3,4.2-0.8
    l0.2-2.8c-1,0.4-1.9,0.6-3.2,0.6c-1.7,0-2.3-0.7-2.3-2.7V14.8H269.8z"></path>
  <path fill="#4D4D4D" d="M255.7,22.7c0-6.4-3.2-11.1-9.1-11.1c-5.4,0-9.3,4.5-9.3,11.6c0,8.8,5,11.8,9.1,11.8c3.4,0,5.4-0.9,8.1-2.6
    l-1.5-2.3c-2.1,1.4-3.6,2.1-6.2,2.1c-3.7,0-6-3-6.3-7.9h15C255.7,23.9,255.7,23.4,255.7,22.7z M240.6,21.8c0.4-5,2.7-7.4,6-7.4
    c3.9,0,5.8,3,6.1,7.4H240.6z"></path>
</g>
</svg>
